<svg width="1536" height="169" viewBox="0 0 1536 169" fill="none" xmlns="http://www.w3.org/2000/svg">
<g clip-path="url(#clip0_29_145)">
<path d="M0 0L25.6 14.1078C51.2 27.9217 102.4 56.5783 153.6 61.9422C204.8 67.6 256 50.7 307.2 56.3578C358.4 61.7217 409.6 90.3783 460.8 101.4C512 112.422 563.2 107.278 614.4 101.4C665.6 95.5217 716.8 90.3783 768 81.7078C819.2 73.4783 870.4 61.7217 921.6 53.4922C972.8 44.8217 1024 39.6783 1075.2 53.4922C1126.4 67.6 1177.6 101.4 1228.8 107.058C1280 112.422 1331.2 90.3783 1382.4 84.5C1433.6 78.6217 1484.8 90.3783 1536 101.4C1587.2 112.422 1638.4 124.178 1689.6 126.75C1740.8 129.322 1792 124.178 1843.2 115.508C1894.4 107.278 1945.6 95.5217 1996.8 101.4C2048 107.278 2099.2 129.322 2150.4 121.092C2201.6 112.422 2252.8 73.4783 2304 53.4922C2355.2 33.8 2406.4 33.8 2457.6 36.5922C2508.8 39.6783 2560 44.8217 2611.2 45.0422C2662.4 44.8217 2713.6 39.6783 2764.8 39.4578C2816 39.6783 2867.2 44.8217 2918.4 59.15C2969.6 73.4783 3020.8 95.5217 3072 98.6078C3123.2 101.4 3174.4 84.5 3225.6 64.8078C3276.8 44.8217 3328 22.7783 3379.2 14.1078C3430.4 5.87826 3481.6 11.0217 3532.8 11.2422C3584 11.0217 3635.2 5.87826 3660.8 2.79217L3686.4 0V169H3660.8C3635.2 169 3584 169 3532.8 169C3481.6 169 3430.4 169 3379.2 169C3328 169 3276.8 169 3225.6 169C3174.4 169 3123.2 169 3072 169C3020.8 169 2969.6 169 2918.4 169C2867.2 169 2816 169 2764.8 169C2713.6 169 2662.4 169 2611.2 169C2560 169 2508.8 169 2457.6 169C2406.4 169 2355.2 169 2304 169C2252.8 169 2201.6 169 2150.4 169C2099.2 169 2048 169 1996.8 169C1945.6 169 1894.4 169 1843.2 169C1792 169 1740.8 169 1689.6 169C1638.4 169 1587.2 169 1536 169C1484.8 169 1433.6 169 1382.4 169C1331.2 169 1280 169 1228.8 169C1177.6 169 1126.4 169 1075.2 169C1024 169 972.8 169 921.6 169C870.4 169 819.2 169 768 169C716.8 169 665.6 169 614.4 169C563.2 169 512 169 460.8 169C409.6 169 358.4 169 307.2 169C256 169 204.8 169 153.6 169C102.4 169 51.2 169 25.6 169H0V0Z" fill="url(#paint0_linear_29_145)"/>
<path opacity="0.8" d="M0 0L25.6 19.6922C51.2 39.6783 102.4 78.6217 153.6 81.7078C204.8 84.5 256 50.7 307.2 53.4922C358.4 56.5783 409.6 95.5217 460.8 98.6078C512 101.4 563.2 67.6 614.4 59.15C665.6 50.7 716.8 67.6 768 87.2922C819.2 107.278 870.4 129.322 921.6 140.858C972.8 152.1 1024 152.1 1075.2 149.308C1126.4 146.222 1177.6 141.078 1228.8 121.092C1280 101.4 1331.2 67.6 1382.4 64.8078C1433.6 61.7217 1484.8 90.3783 1536 84.5C1587.2 78.6217 1638.4 39.6783 1689.6 42.25C1740.8 44.8217 1792 90.3783 1843.2 101.4C1894.4 112.422 1945.6 90.3783 1996.8 76.05C2048 61.7217 2099.2 56.5783 2150.4 64.8078C2201.6 73.4783 2252.8 95.5217 2304 92.95C2355.2 90.3783 2406.4 61.7217 2457.6 45.0422C2508.8 27.9217 2560 22.7783 2611.2 42.25C2662.4 61.7217 2713.6 107.278 2764.8 129.542C2816 152.1 2867.2 152.1 2918.4 152.1C2969.6 152.1 3020.8 152.1 3072 143.65C3123.2 135.2 3174.4 118.3 3225.6 92.95C3276.8 67.6 3328 33.8 3379.2 42.25C3430.4 50.7 3481.6 101.4 3532.8 121.092C3584 141.078 3635.2 129.322 3660.8 123.958L3686.4 118.3V169H3660.8C3635.2 169 3584 169 3532.8 169C3481.6 169 3430.4 169 3379.2 169C3328 169 3276.8 169 3225.6 169C3174.4 169 3123.2 169 3072 169C3020.8 169 2969.6 169 2918.4 169C2867.2 169 2816 169 2764.8 169C2713.6 169 2662.4 169 2611.2 169C2560 169 2508.8 169 2457.6 169C2406.4 169 2355.2 169 2304 169C2252.8 169 2201.6 169 2150.4 169C2099.2 169 2048 169 1996.8 169C1945.6 169 1894.4 169 1843.2 169C1792 169 1740.8 169 1689.6 169C1638.4 169 1587.2 169 1536 169C1484.8 169 1433.6 169 1382.4 169C1331.2 169 1280 169 1228.8 169C1177.6 169 1126.4 169 1075.2 169C1024 169 972.8 169 921.6 169C870.4 169 819.2 169 768 169C716.8 169 665.6 169 614.4 169C563.2 169 512 169 460.8 169C409.6 169 358.4 169 307.2 169C256 169 204.8 169 153.6 169C102.4 169 51.2 169 25.6 169H0V0Z" fill="url(#paint1_linear_29_145)"/>
</g>
<defs>
<linearGradient id="paint0_linear_29_145" x1="0" y1="169" x2="0" y2="0" gradientUnits="userSpaceOnUse">
<stop stop-color="#5DC2FF"/>
<stop offset="0.02" stop-color="#5DC2FF"/>
<stop offset="1" stop-color="#5DC2FF" stop-opacity="0.46"/>
</linearGradient>
<linearGradient id="paint1_linear_29_145" x1="0" y1="169" x2="0" y2="0" gradientUnits="userSpaceOnUse">
<stop stop-color="#5DC2FF"/>
<stop offset="0.02" stop-color="#5DC2FF"/>
<stop offset="1" stop-color="#5DC2FF" stop-opacity="0.46"/>
</linearGradient>
<clipPath id="clip0_29_145">
<rect width="1536" height="169" fill="white"/>
</clipPath>
</defs>
</svg>
