<svg width="1536" height="155" viewBox="0 0 1536 155" xmlns="http://www.w3.org/2000/svg">
    <g clip-path="url(#clip0_25_125)">
        <path d="M0 0L23.2533 7.75C46.5067 15.5 92.8 31 139.733 51.6667C186.133 72.3333 232.533 98.1667 279.467 93C325.867 87.8333 372.267 51.6667 419.2 46.5C465.493 41.3333 512 67.1667 558.933 85.25C605.12 103.333 651.733 113.667 698.667 111.083C744.747 108.5 791.467 93 837.333 82.6667C884.373 72.3333 931.2 67.1667 977.067 72.3333C1024 77.5 1070.93 93 1116.8 85.25C1163.63 77.5 1210.67 46.5 1256.53 43.9167C1303.25 41.3333 1349.33 67.1667 1396.27 85.25C1442.88 103.333 1489.07 113.667 1536 103.333C1582.51 93 1628.8 62 1675.73 54.25C1722.13 46.5 1768.53 62 1815.47 59.4167C1861.87 56.8333 1908.27 36.1667 1955.2 41.3333C2001.49 46.5 2048 77.5 2094.93 95.5833C2141.12 113.667 2187.73 118.833 2234.67 108.5C2280.75 98.1667 2327.47 72.3333 2373.33 69.75C2420.37 67.1667 2467.2 87.8333 2513.07 90.4167C2560 93 2606.93 77.5 2652.8 59.4167C2699.63 41.3333 2746.67 20.6667 2792.53 33.5833C2839.25 46.5 2885.33 93 2932.27 116.25C2978.88 139.5 3025.07 139.5 3072 129.167C3118.51 118.833 3164.8 98.1667 3211.73 82.6667C3258.13 67.1667 3304.53 56.8333 3328 51.6667L3351.25 46.5V155H3328C3304.75 155 3258.67 155 3211.73 155C3165.12 155 3118.93 155 3072 155C3025.49 155 2979.2 155 2932.27 155C2885.87 155 2839.47 155 2792.53 155C2746.13 155 2699.73 155 2652.8 155C2606.51 155 2560 155 2513.07 155C2466.88 155 2420.27 155 2373.33 155C2327.25 155 2280.53 155 2234.67 155C2187.63 155 2140.8 155 2094.93 155C2048 155 2001.07 155 1955.2 155C1908.37 155 1861.33 155 1815.47 155C1768.75 155 1722.67 155 1675.73 155C1629.12 155 1582.93 155 1536 155C1489.49 155 1443.2 155 1396.27 155C1349.87 155 1303.47 155 1256.53 155C1210.13 155 1163.73 155 1116.8 155C1070.51 155 1024 155 977.067 155C930.88 155 884.267 155 837.333 155C791.253 155 744.533 155 698.667 155C651.627 155 604.8 155 558.933 155C512 155 465.067 155 419.2 155C372.373 155 325.333 155 279.467 155C232.747 155 186.667 155 139.733 155C93.12 155 46.9333 155 23.4667 155H0V0Z" fill="#051620"/>
    </g>
</svg>
