<svg id="Layer_3" data-name="Layer 3" xmlns="http://www.w3.org/2000/svg" viewBox="0 0 390.64 505.21">
<defs>
    <linearGradient id="test" x1="0" x2="0" y1="0" y2="1">
      <stop offset="0%" stop-color="red" />
      <stop offset="100%" stop-color="blue" />
    </linearGradient>
</defs>
<path fill="url(#test)" d="M257.05-.38C149.18-.38,61.73,87.06,61.73,194.94A193.3,193.3,0,0,0,77.2,271c20.14,47.39,124.28,179.71,151.89,217.83,7.14,9.87,16.17,16,28,16s20.82-6.13,28-16C312.62,450.71,416.77,318.39,436.91,271a193.47,193.47,0,0,0,15.46-76.06C452.37,87.06,364.92-.38,257.05-.38Zm0,269.86a55.72,55.72,0,1,1,55.72-55.71A55.71,55.71,0,0,1,257.05,269.48Z" transform="translate(-61.73 0.38)"/>
</svg>